<?xml version="1.0" encoding="UTF-8"?>
<svg id="svg7713" xmlns="http://www.w3.org/2000/svg" version="1.1" viewBox="0 0 280 50">
  <!-- Generator: Adobe Illustrator 29.3.0, SVG Export Plug-In . SVG Version: 2.1.0 Build 146)  -->
  <defs>
    <style>
      .st0 {
        fill: #39424e;
      }

      .st1 {
        fill: #2ec866;
      }

      .st2 {
        display: none;
      }
    </style>
  </defs>
  <g id="layer1">
    <path id="rect7717" class="st0" d="M4.7,0h270.6c2.6,0,4.7,4.5,4.7,10v30c0,5.5-2.1,10-4.7,10H4.7c-2.6,0-4.7-4.5-4.7-10V10C0,4.5,2.1,0,4.7,0Z"/>
    <g id="g10031" class="st2">
      <path id="path10021" class="st1" d="M234.8,35.4c.2,0,.3-.2.3-.3V14.6c0-.2-.1-.3-.3-.3h-14.3c-.2,0-.3.1-.3.3v20.5c0,.2.1.3.3.3h14.3Z"/>
    </g>
  </g>
</svg>