<?xml version="1.0" encoding="UTF-8"?>
<svg id="svg7713" xmlns="http://www.w3.org/2000/svg" viewBox="0 0 280 50">
  <g id="layer1">
    <path id="rect7717" d="M4.69,0h270.61c2.59,0,4.69,4.48,4.69,10v30c0,5.52-2.1,10-4.69,10H4.69c-2.59,0-4.69-4.48-4.69-10V10C0,4.48,2.1,0,4.69,0Z" style="fill: #39424e;"/>
    <g id="g10031">
      <path id="path10021" d="M234.78,35.37c.17,0,.31-.15.31-.32V14.57c0-.18-.14-.32-.31-.32h-14.29c-.17,0-.31.15-.31.32v20.48c0,.18.14.32.31.32h14.29Z" style="fill: #2ec866;"/>
    </g>
  </g>
</svg>