<?xml version="1.0" encoding="UTF-8"?>
<svg id="svg" xmlns="http://www.w3.org/2000/svg" viewBox="0 0 861 201">
  <rect x=".5" y=".5" width="860" height="200" style="stroke: #231815; stroke-miterlimit: 10;"/>
  <g>
    <path d="M34.9,67.17h7.76v15.4h-7.76v-15.4Z" style="fill: #fff;"/>
    <path d="M42.67,67.17h7.76v15.4h-7.76v-15.4Z" style="fill: #fff;"/>
    <path d="M50.43,67.17h7.76v15.4h-7.76v-15.4Z" style="fill: #fff;"/>
    <path d="M62.96,82.58v-8.46h-5.66v-1.51h7.44v9.97h-1.78ZM59.41,82.58v-5.43h-2.1v-1.51h3.88v6.95h-1.78Z" style="fill: #fff;"/>
    <path d="M89.24,67.17h7.76v15.4h-7.76v-15.4Z" style="fill: #fff;"/>
    <path d="M97,67.17h7.76v15.4h-7.76v-15.4Z" style="fill: #fff;"/>
    <path d="M109.53,82.58v-8.46h-5.66v-1.51h7.44v9.97h-1.78ZM105.98,82.58v-5.43h-2.1v-1.51h3.88v6.95h-1.78Z" style="fill: #fff;"/>
    <path d="M120.28,67.17h7.76v15.4h-7.76v-15.4Z" style="fill: #fff;"/>
    <path d="M128.05,67.17h7.76v15.4h-7.76v-15.4Z" style="fill: #fff;"/>
    <path d="M135.81,67.17h7.76v15.4h-7.76v-15.4Z" style="fill: #fff;"/>
    <path d="M143.57,67.17h7.76v15.4h-7.76v-15.4Z" style="fill: #fff;"/>
    <path d="M151.33,67.17h7.76v15.4h-7.76v-15.4Z" style="fill: #fff;"/>
    <path d="M159.09,67.17h7.76v15.4h-7.76v-15.4Z" style="fill: #fff;"/>
    <path d="M166.86,67.17h7.76v15.4h-7.76v-15.4Z" style="fill: #fff;"/>
    <path d="M179.39,82.58v-8.46h-5.66v-1.51h7.44v9.97h-1.78ZM175.83,82.58v-5.43h-2.1v-1.51h3.88v6.95h-1.78Z" style="fill: #fff;"/>
    <path d="M190.14,67.17h7.76v15.4h-7.76v-15.4Z" style="fill: #fff;"/>
    <path d="M197.9,67.17h7.76v15.4h-7.76v-15.4Z" style="fill: #fff;"/>
    <path d="M210.43,82.58v-8.46h-5.66v-1.51h7.44v9.97h-1.78ZM206.88,82.58v-5.43h-2.1v-1.51h3.88v6.95h-1.78Z" style="fill: #fff;"/>
    <path d="M228.95,67.17h7.76v15.4h-7.76v-15.4Z" style="fill: #fff;"/>
    <path d="M236.71,67.17h7.76v15.4h-7.76v-15.4Z" style="fill: #fff;"/>
    <path d="M249.24,82.58v-8.46h-5.66v-1.51h7.44v9.97h-1.78ZM245.69,82.58v-5.43h-2.1v-1.51h3.88v6.95h-1.78Z" style="fill: #fff;"/>
    <path d="M267.76,67.17h7.76v15.4h-7.76v-15.4Z" style="fill: #fff;"/>
    <path d="M275.52,67.17h7.76v15.4h-7.76v-15.4Z" style="fill: #fff;"/>
    <path d="M283.28,67.17h7.76v15.4h-7.76v-15.4Z" style="fill: #fff;"/>
    <path d="M291.05,67.17h7.76v15.4h-7.76v-15.4Z" style="fill: #fff;"/>
    <path d="M298.81,67.17h7.76v15.4h-7.76v-15.4Z" style="fill: #fff;"/>
    <path d="M306.57,67.17h7.76v15.4h-7.76v-15.4Z" style="fill: #fff;"/>
    <path d="M319.1,82.58v-8.46h-5.66v-1.51h7.44v9.97h-1.78ZM315.55,82.58v-5.43h-2.1v-1.51h3.88v6.95h-1.78Z" style="fill: #fff;"/>
    <path d="M391.95,67.17h7.76v15.4h-7.76v-15.4Z" style="fill: #fff;"/>
    <path d="M399.71,67.17h7.76v15.4h-7.76v-15.4Z" style="fill: #fff;"/>
    <path d="M407.48,67.17h7.76v15.4h-7.76v-15.4Z" style="fill: #fff;"/>
    <path d="M420.01,82.58v-8.46h-5.66v-1.51h7.44v9.97h-1.78ZM416.45,82.58v-5.43h-2.1v-1.51h3.88v6.95h-1.78Z" style="fill: #fff;"/>
    <path d="M446.29,67.17h7.76v15.4h-7.76v-15.4Z" style="fill: #fff;"/>
    <path d="M454.05,67.17h7.76v15.4h-7.76v-15.4Z" style="fill: #fff;"/>
    <path d="M461.81,67.17h7.76v15.4h-7.76v-15.4Z" style="fill: #fff;"/>
    <path d="M474.34,82.58v-8.46h-5.66v-1.51h7.44v9.97h-1.78ZM470.79,82.58v-5.43h-2.1v-1.51h3.88v6.95h-1.78Z" style="fill: #fff;"/>
    <path d="M492.86,67.17h7.76v15.4h-7.76v-15.4Z" style="fill: #fff;"/>
    <path d="M500.62,67.17h7.76v15.4h-7.76v-15.4Z" style="fill: #fff;"/>
    <path d="M508.38,67.17h7.76v15.4h-7.76v-15.4Z" style="fill: #fff;"/>
    <path d="M516.14,67.17h7.76v15.4h-7.76v-15.4Z" style="fill: #fff;"/>
    <path d="M523.9,67.17h7.76v15.4h-7.76v-15.4Z" style="fill: #fff;"/>
    <path d="M536.44,82.58v-8.46h-5.66v-1.51h7.44v9.97h-1.78ZM532.88,82.58v-5.43h-2.1v-1.51h3.88v6.95h-1.78Z" style="fill: #fff;"/>
    <path d="M554.95,67.17h7.76v15.4h-7.76v-15.4Z" style="fill: #fff;"/>
    <path d="M562.71,67.17h7.76v15.4h-7.76v-15.4Z" style="fill: #fff;"/>
    <path d="M570.47,67.17h7.76v15.4h-7.76v-15.4Z" style="fill: #fff;"/>
    <path d="M578.24,67.17h7.76v15.4h-7.76v-15.4Z" style="fill: #fff;"/>
    <path d="M586,67.17h7.76v15.4h-7.76v-15.4Z" style="fill: #fff;"/>
    <path d="M593.76,67.17h7.76v15.4h-7.76v-15.4Z" style="fill: #fff;"/>
    <path d="M606.29,82.58v-8.46h-5.66v-1.51h7.44v9.97h-1.78ZM602.74,82.58v-5.43h-2.1v-1.51h3.88v6.95h-1.78Z" style="fill: #fff;"/>
    <path d="M632.57,67.17h7.76v15.4h-7.76v-15.4Z" style="fill: #fff;"/>
    <path d="M640.33,67.17h7.76v15.4h-7.76v-15.4Z" style="fill: #fff;"/>
    <path d="M648.09,67.17h7.76v15.4h-7.76v-15.4Z" style="fill: #fff;"/>
    <path d="M655.86,67.17h7.76v15.4h-7.76v-15.4Z" style="fill: #fff;"/>
    <path d="M663.62,67.17h7.76v15.4h-7.76v-15.4Z" style="fill: #fff;"/>
    <path d="M671.38,67.17h7.76v15.4h-7.76v-15.4Z" style="fill: #fff;"/>
    <path d="M683.91,82.58v-8.46h-5.66v-1.51h7.44v9.97h-1.78ZM680.36,82.58v-5.43h-2.1v-1.51h3.88v6.95h-1.78Z" style="fill: #fff;"/>
    <path d="M702.43,67.17h7.76v15.4h-7.76v-15.4Z" style="fill: #fff;"/>
    <path d="M710.19,67.17h7.76v15.4h-7.76v-15.4Z" style="fill: #fff;"/>
    <path d="M722.72,82.58v-8.46h-5.66v-1.51h7.44v9.97h-1.78ZM719.17,82.58v-5.43h-2.1v-1.51h3.88v6.95h-1.78Z" style="fill: #fff;"/>
    <path d="M741.24,67.17h7.76v15.4h-7.76v-15.4Z" style="fill: #fff;"/>
    <path d="M749,67.17h7.76v15.4h-7.76v-15.4Z" style="fill: #fff;"/>
    <path d="M761.53,82.58v-8.46h-5.66v-1.51h7.44v9.97h-1.78ZM757.98,82.58v-5.43h-2.1v-1.51h3.88v6.95h-1.78Z" style="fill: #fff;"/>
    <path d="M780.05,67.17h7.76v15.4h-7.76v-15.4Z" style="fill: #fff;"/>
    <path d="M787.81,67.17h7.76v15.4h-7.76v-15.4Z" style="fill: #fff;"/>
    <path d="M795.57,67.17h7.76v15.4h-7.76v-15.4Z" style="fill: #fff;"/>
    <path d="M803.33,67.17h7.76v15.4h-7.76v-15.4Z" style="fill: #fff;"/>
    <path d="M811.09,67.17h7.76v15.4h-7.76v-15.4Z" style="fill: #fff;"/>
    <path d="M823.62,82.58v-8.46h-5.66v-1.51h7.44v9.97h-1.78ZM820.07,82.58v-5.43h-2.1v-1.51h3.88v6.95h-1.78Z" style="fill: #fff;"/>
    <path d="M34.9,80.37h7.76v15.4h-7.76v-15.4Z" style="fill: #fff;"/>
    <path d="M42.67,80.37h7.76v15.4h-7.76v-15.4Z" style="fill: #fff;"/>
    <path d="M50.43,80.37h7.76v15.4h-7.76v-15.4Z" style="fill: #fff;"/>
    <path d="M58.19,80.37h7.76v15.4h-7.76v-15.4Z" style="fill: #fff;"/>
    <path d="M70.72,95.78v-8.46h-5.66v-1.51h7.44v9.97h-1.78ZM67.17,95.78v-5.43h-2.1v-1.51h3.88v6.95h-1.78Z" style="fill: #fff;"/>
    <path d="M89.24,80.37h7.76v15.4h-7.76v-15.4Z" style="fill: #fff;"/>
    <path d="M97,80.37h7.76v15.4h-7.76v-15.4Z" style="fill: #fff;"/>
    <path d="M105.98,80.37h1.78v15.4h-1.78v-15.4ZM109.53,80.37h1.78v15.4h-1.78v-15.4Z" style="fill: #fff;"/>
    <path d="M120.28,80.37h7.76v15.4h-7.76v-15.4Z" style="fill: #fff;"/>
    <path d="M128.05,80.37h7.76v15.4h-7.76v-15.4Z" style="fill: #fff;"/>
    <path d="M138.8,87.32v8.46h-1.78v-9.97h7.44v1.51h-5.66ZM142.36,90.34v5.43h-1.78v-6.95h3.88v1.51h-2.1Z" style="fill: #fff;"/>
    <path d="M142.68,85.81h9.54v1.51h-9.54v-1.51ZM142.68,88.83h9.54v1.51h-9.54v-1.51Z" style="fill: #fff;"/>
    <path d="M150.45,85.81h9.54v1.51h-9.54v-1.51ZM150.45,88.83h9.54v1.51h-9.54v-1.51Z" style="fill: #fff;"/>
    <path d="M158.21,85.81h9.54v1.51h-9.54v-1.51ZM158.21,88.83h9.54v1.51h-9.54v-1.51Z" style="fill: #fff;"/>
    <path d="M165.97,85.81h9.54v1.51h-9.54v-1.51ZM165.97,88.83h9.54v1.51h-9.54v-1.51Z" style="fill: #fff;"/>
    <path d="M173.73,90.34v-1.51h5.66v-8.46h1.78v9.97h-7.44ZM173.73,87.32v-1.51h2.1v-5.43h1.78v6.95h-3.88Z" style="fill: #fff;"/>
    <path d="M190.14,80.37h7.76v15.4h-7.76v-15.4Z" style="fill: #fff;"/>
    <path d="M197.9,80.37h7.76v15.4h-7.76v-15.4Z" style="fill: #fff;"/>
    <path d="M206.88,80.37h1.78v15.4h-1.78v-15.4ZM210.43,80.37h1.78v15.4h-1.78v-15.4Z" style="fill: #fff;"/>
    <path d="M221.19,80.37h7.76v15.4h-7.76v-15.4Z" style="fill: #fff;"/>
    <path d="M228.95,80.37h7.76v15.4h-7.76v-15.4Z" style="fill: #fff;"/>
    <path d="M239.71,87.32v8.46h-1.78v-9.97h7.44v1.51h-5.66ZM243.26,90.34v5.43h-1.78v-6.95h3.88v1.51h-2.1Z" style="fill: #fff;"/>
    <path d="M243.59,90.34v-1.51h5.66v-8.46h1.78v9.97h-7.44ZM243.59,87.32v-1.51h2.1v-5.43h1.78v6.95h-3.88Z" style="fill: #fff;"/>
    <path d="M260,80.37h7.76v15.4h-7.76v-15.4Z" style="fill: #fff;"/>
    <path d="M267.76,80.37h7.76v15.4h-7.76v-15.4Z" style="fill: #fff;"/>
    <path d="M278.52,87.32v8.46h-1.78v-9.97h7.44v1.51h-5.66ZM282.07,90.34v5.43h-1.78v-6.95h3.88v1.51h-2.1Z" style="fill: #fff;"/>
    <path d="M282.4,85.81h9.54v1.51h-9.54v-1.51ZM282.4,88.83h9.54v1.51h-9.54v-1.51Z" style="fill: #fff;"/>
    <path d="M290.16,85.81h9.54v1.51h-9.54v-1.51ZM290.16,88.83h9.54v1.51h-9.54v-1.51Z" style="fill: #fff;"/>
    <path d="M297.92,85.81h9.54v1.51h-9.54v-1.51ZM297.92,88.83h9.54v1.51h-9.54v-1.51Z" style="fill: #fff;"/>
    <path d="M306.57,80.37h7.76v15.4h-7.76v-15.4Z" style="fill: #fff;"/>
    <path d="M314.33,80.37h7.76v15.4h-7.76v-15.4Z" style="fill: #fff;"/>
    <path d="M326.86,95.78v-8.46h-5.66v-1.51h7.44v9.97h-1.78ZM323.31,95.78v-5.43h-2.1v-1.51h3.88v6.95h-1.78Z" style="fill: #fff;"/>
    <path d="M391.95,80.37h7.76v15.4h-7.76v-15.4Z" style="fill: #fff;"/>
    <path d="M399.71,80.37h7.76v15.4h-7.76v-15.4Z" style="fill: #fff;"/>
    <path d="M407.48,80.37h7.76v15.4h-7.76v-15.4Z" style="fill: #fff;"/>
    <path d="M415.24,80.37h7.76v15.4h-7.76v-15.4Z" style="fill: #fff;"/>
    <path d="M427.77,95.78v-8.46h-5.66v-1.51h7.44v9.97h-1.78ZM424.21,95.78v-5.43h-2.1v-1.51h3.88v6.95h-1.78Z" style="fill: #fff;"/>
    <path d="M438.52,80.37h7.76v15.4h-7.76v-15.4Z" style="fill: #fff;"/>
    <path d="M446.29,80.37h7.76v15.4h-7.76v-15.4Z" style="fill: #fff;"/>
    <path d="M454.05,80.37h7.76v15.4h-7.76v-15.4Z" style="fill: #fff;"/>
    <path d="M461.81,80.37h7.76v15.4h-7.76v-15.4Z" style="fill: #fff;"/>
    <path d="M470.79,80.37h1.78v15.4h-1.78v-15.4ZM474.34,80.37h1.78v15.4h-1.78v-15.4Z" style="fill: #fff;"/>
    <path d="M485.09,80.37h7.76v15.4h-7.76v-15.4Z" style="fill: #fff;"/>
    <path d="M492.86,80.37h7.76v15.4h-7.76v-15.4Z" style="fill: #fff;"/>
    <path d="M503.61,87.32v8.46h-1.78v-9.97h7.44v1.51h-5.66ZM507.17,90.34v5.43h-1.78v-6.95h3.88v1.51h-2.1Z" style="fill: #fff;"/>
    <path d="M507.49,85.81h9.54v1.51h-9.54v-1.51ZM507.49,88.83h9.54v1.51h-9.54v-1.51Z" style="fill: #fff;"/>
    <path d="M515.25,85.81h9.54v1.51h-9.54v-1.51ZM515.25,88.83h9.54v1.51h-9.54v-1.51Z" style="fill: #fff;"/>
    <path d="M523.9,80.37h7.76v15.4h-7.76v-15.4Z" style="fill: #fff;"/>
    <path d="M531.67,80.37h7.76v15.4h-7.76v-15.4Z" style="fill: #fff;"/>
    <path d="M544.2,95.78v-8.46h-5.66v-1.51h7.44v9.97h-1.78ZM540.64,95.78v-5.43h-2.1v-1.51h3.88v6.95h-1.78Z" style="fill: #fff;"/>
    <path d="M554.95,80.37h7.76v15.4h-7.76v-15.4Z" style="fill: #fff;"/>
    <path d="M562.71,80.37h7.76v15.4h-7.76v-15.4Z" style="fill: #fff;"/>
    <path d="M573.47,87.32v8.46h-1.78v-9.97h7.44v1.51h-5.66ZM577.02,90.34v5.43h-1.78v-6.95h3.88v1.51h-2.1Z" style="fill: #fff;"/>
    <path d="M577.35,85.81h9.54v1.51h-9.54v-1.51ZM577.35,88.83h9.54v1.51h-9.54v-1.51Z" style="fill: #fff;"/>
    <path d="M585.11,85.81h9.54v1.51h-9.54v-1.51ZM585.11,88.83h9.54v1.51h-9.54v-1.51Z" style="fill: #fff;"/>
    <path d="M593.76,80.37h7.76v15.4h-7.76v-15.4Z" style="fill: #fff;"/>
    <path d="M601.52,80.37h7.76v15.4h-7.76v-15.4Z" style="fill: #fff;"/>
    <path d="M614.05,95.78v-8.46h-5.66v-1.51h7.44v9.97h-1.78ZM610.5,95.78v-5.43h-2.1v-1.51h3.88v6.95h-1.78Z" style="fill: #fff;"/>
    <path d="M624.81,80.37h7.76v15.4h-7.76v-15.4Z" style="fill: #fff;"/>
    <path d="M632.57,80.37h7.76v15.4h-7.76v-15.4Z" style="fill: #fff;"/>
    <path d="M643.33,87.32v8.46h-1.78v-9.97h7.44v1.51h-5.66ZM646.88,90.34v5.43h-1.78v-6.95h3.88v1.51h-2.1Z" style="fill: #fff;"/>
    <path d="M647.21,85.81h9.54v1.51h-9.54v-1.51ZM647.21,88.83h9.54v1.51h-9.54v-1.51Z" style="fill: #fff;"/>
    <path d="M654.97,85.81h9.54v1.51h-9.54v-1.51ZM654.97,88.83h9.54v1.51h-9.54v-1.51Z" style="fill: #fff;"/>
    <path d="M662.73,85.81h9.54v1.51h-9.54v-1.51ZM662.73,88.83h9.54v1.51h-9.54v-1.51Z" style="fill: #fff;"/>
    <path d="M671.38,80.37h7.76v15.4h-7.76v-15.4Z" style="fill: #fff;"/>
    <path d="M679.14,80.37h7.76v15.4h-7.76v-15.4Z" style="fill: #fff;"/>
    <path d="M691.67,95.78v-8.46h-5.66v-1.51h7.44v9.97h-1.78ZM688.12,95.78v-5.43h-2.1v-1.51h3.88v6.95h-1.78Z" style="fill: #fff;"/>
    <path d="M702.43,80.37h7.76v15.4h-7.76v-15.4Z" style="fill: #fff;"/>
    <path d="M710.19,80.37h7.76v15.4h-7.76v-15.4Z" style="fill: #fff;"/>
    <path d="M719.17,80.37h1.78v15.4h-1.78v-15.4ZM722.72,80.37h1.78v15.4h-1.78v-15.4Z" style="fill: #fff;"/>
    <path d="M733.47,80.37h7.76v15.4h-7.76v-15.4Z" style="fill: #fff;"/>
    <path d="M741.24,80.37h7.76v15.4h-7.76v-15.4Z" style="fill: #fff;"/>
    <path d="M751.99,87.32v8.46h-1.78v-9.97h7.44v1.51h-5.66ZM755.55,90.34v5.43h-1.78v-6.95h3.88v1.51h-2.1Z" style="fill: #fff;"/>
    <path d="M755.87,90.34v-1.51h5.66v-8.46h1.78v9.97h-7.44ZM755.87,87.32v-1.51h2.1v-5.43h1.78v6.95h-3.88Z" style="fill: #fff;"/>
    <path d="M772.29,80.37h7.76v15.4h-7.76v-15.4Z" style="fill: #fff;"/>
    <path d="M780.05,80.37h7.76v15.4h-7.76v-15.4Z" style="fill: #fff;"/>
    <path d="M790.8,87.32v8.46h-1.78v-9.97h7.44v1.51h-5.66ZM794.36,90.34v5.43h-1.78v-6.95h3.88v1.51h-2.1Z" style="fill: #fff;"/>
    <path d="M794.68,85.81h9.54v1.51h-9.54v-1.51ZM794.68,88.83h9.54v1.51h-9.54v-1.51Z" style="fill: #fff;"/>
    <path d="M802.45,85.81h9.54v1.51h-9.54v-1.51ZM802.45,88.83h9.54v1.51h-9.54v-1.51Z" style="fill: #fff;"/>
    <path d="M811.09,80.37h7.76v15.4h-7.76v-15.4Z" style="fill: #fff;"/>
    <path d="M818.86,80.37h7.76v15.4h-7.76v-15.4Z" style="fill: #fff;"/>
    <path d="M831.39,95.78v-8.46h-5.66v-1.51h7.44v9.97h-1.78ZM827.83,95.78v-5.43h-2.1v-1.51h3.88v6.95h-1.78Z" style="fill: #fff;"/>
    <path d="M34.9,93.57h7.76v15.4h-7.76v-15.4Z" style="fill: #fff;"/>
    <path d="M42.67,93.57h7.76v15.4h-7.76v-15.4Z" style="fill: #fff;"/>
    <path d="M53.42,100.52v8.46h-1.78v-9.97h7.44v1.51h-5.66ZM56.98,103.54v5.43h-1.78v-6.95h3.88v1.51h-2.1Z" style="fill: #fff;"/>
    <path d="M58.19,93.57h7.76v15.4h-7.76v-15.4Z" style="fill: #fff;"/>
    <path d="M65.95,93.57h7.76v15.4h-7.76v-15.4Z" style="fill: #fff;"/>
    <path d="M78.48,108.98v-8.46h-5.66v-1.51h7.44v9.97h-1.78ZM74.93,108.98v-5.43h-2.1v-1.51h3.88v6.95h-1.78Z" style="fill: #fff;"/>
    <path d="M89.24,93.57h7.76v15.4h-7.76v-15.4Z" style="fill: #fff;"/>
    <path d="M97,93.57h7.76v15.4h-7.76v-15.4Z" style="fill: #fff;"/>
    <path d="M105.98,93.57h1.78v15.4h-1.78v-15.4ZM109.53,93.57h1.78v15.4h-1.78v-15.4Z" style="fill: #fff;"/>
    <path d="M120.28,93.57h7.76v15.4h-7.76v-15.4Z" style="fill: #fff;"/>
    <path d="M128.05,93.57h7.76v15.4h-7.76v-15.4Z" style="fill: #fff;"/>
    <path d="M135.81,93.57h7.76v15.4h-7.76v-15.4Z" style="fill: #fff;"/>
    <path d="M143.57,93.57h7.76v15.4h-7.76v-15.4Z" style="fill: #fff;"/>
    <path d="M151.33,93.57h7.76v15.4h-7.76v-15.4Z" style="fill: #fff;"/>
    <path d="M163.86,108.98v-8.46h-5.66v-1.51h7.44v9.97h-1.78ZM160.31,108.98v-5.43h-2.1v-1.51h3.88v6.95h-1.78Z" style="fill: #fff;"/>
    <path d="M190.14,93.57h7.76v15.4h-7.76v-15.4Z" style="fill: #fff;"/>
    <path d="M197.9,93.57h7.76v15.4h-7.76v-15.4Z" style="fill: #fff;"/>
    <path d="M205.67,93.57h7.76v15.4h-7.76v-15.4Z" style="fill: #fff;"/>
    <path d="M213.43,93.57h7.76v15.4h-7.76v-15.4Z" style="fill: #fff;"/>
    <path d="M221.19,93.57h7.76v15.4h-7.76v-15.4Z" style="fill: #fff;"/>
    <path d="M231.95,100.52v8.46h-1.78v-9.97h7.44v1.51h-5.66ZM235.5,103.54v5.43h-1.78v-6.95h3.88v1.51h-2.1Z" style="fill: #fff;"/>
    <path d="M235.83,103.54v-1.51h5.66v-8.46h1.78v9.97h-7.44ZM235.83,100.52v-1.51h2.1v-5.43h1.78v6.95h-3.88Z" style="fill: #fff;"/>
    <path d="M260,93.57h7.76v15.4h-7.76v-15.4Z" style="fill: #fff;"/>
    <path d="M267.76,93.57h7.76v15.4h-7.76v-15.4Z" style="fill: #fff;"/>
    <path d="M276.74,93.57h1.78v15.4h-1.78v-15.4ZM280.29,93.57h1.78v15.4h-1.78v-15.4Z" style="fill: #fff;"/>
    <path d="M306.57,93.57h7.76v15.4h-7.76v-15.4Z" style="fill: #fff;"/>
    <path d="M314.33,93.57h7.76v15.4h-7.76v-15.4Z" style="fill: #fff;"/>
    <path d="M323.31,93.57h1.78v15.4h-1.78v-15.4ZM326.86,93.57h1.78v15.4h-1.78v-15.4Z" style="fill: #fff;"/>
    <path d="M337.62,93.57h7.76v15.4h-7.76v-15.4Z" style="fill: #fff;"/>
    <path d="M345.38,93.57h7.76v15.4h-7.76v-15.4Z" style="fill: #fff;"/>
    <path d="M353.14,93.57h7.76v15.4h-7.76v-15.4Z" style="fill: #fff;"/>
    <path d="M360.9,93.57h7.76v15.4h-7.76v-15.4Z" style="fill: #fff;"/>
    <path d="M368.67,93.57h7.76v15.4h-7.76v-15.4Z" style="fill: #fff;"/>
    <path d="M381.2,108.98v-8.46h-5.66v-1.51h7.44v9.97h-1.78ZM377.64,108.98v-5.43h-2.1v-1.51h3.88v6.95h-1.78Z" style="fill: #fff;"/>
    <path d="M391.95,93.57h7.76v15.4h-7.76v-15.4Z" style="fill: #fff;"/>
    <path d="M399.71,93.57h7.76v15.4h-7.76v-15.4Z" style="fill: #fff;"/>
    <path d="M410.47,100.52v8.46h-1.78v-9.97h7.44v1.51h-5.66ZM414.02,103.54v5.43h-1.78v-6.95h3.88v1.51h-2.1Z" style="fill: #fff;"/>
    <path d="M415.24,93.57h7.76v15.4h-7.76v-15.4Z" style="fill: #fff;"/>
    <path d="M423,93.57h7.76v15.4h-7.76v-15.4Z" style="fill: #fff;"/>
    <path d="M430.76,93.57h7.76v15.4h-7.76v-15.4Z" style="fill: #fff;"/>
    <path d="M438.52,93.57h7.76v15.4h-7.76v-15.4Z" style="fill: #fff;"/>
    <path d="M449.28,100.52v8.46h-1.78v-9.97h7.44v1.51h-5.66ZM452.83,103.54v5.43h-1.78v-6.95h3.88v1.51h-2.1Z" style="fill: #fff;"/>
    <path d="M454.05,93.57h7.76v15.4h-7.76v-15.4Z" style="fill: #fff;"/>
    <path d="M461.81,93.57h7.76v15.4h-7.76v-15.4Z" style="fill: #fff;"/>
    <path d="M470.79,93.57h1.78v15.4h-1.78v-15.4ZM474.34,93.57h1.78v15.4h-1.78v-15.4Z" style="fill: #fff;"/>
    <path d="M485.09,93.57h7.76v15.4h-7.76v-15.4Z" style="fill: #fff;"/>
    <path d="M492.86,93.57h7.76v15.4h-7.76v-15.4Z" style="fill: #fff;"/>
    <path d="M500.62,93.57h7.76v15.4h-7.76v-15.4Z" style="fill: #fff;"/>
    <path d="M508.38,93.57h7.76v15.4h-7.76v-15.4Z" style="fill: #fff;"/>
    <path d="M516.14,93.57h7.76v15.4h-7.76v-15.4Z" style="fill: #fff;"/>
    <path d="M523.9,93.57h7.76v15.4h-7.76v-15.4Z" style="fill: #fff;"/>
    <path d="M531.67,93.57h7.76v15.4h-7.76v-15.4Z" style="fill: #fff;"/>
    <path d="M540.64,93.57h1.78v15.4h-1.78v-15.4ZM544.2,93.57h1.78v15.4h-1.78v-15.4Z" style="fill: #fff;"/>
    <path d="M554.95,93.57h7.76v15.4h-7.76v-15.4Z" style="fill: #fff;"/>
    <path d="M562.71,93.57h7.76v15.4h-7.76v-15.4Z" style="fill: #fff;"/>
    <path d="M571.69,93.57h1.78v15.4h-1.78v-15.4ZM575.24,93.57h1.78v15.4h-1.78v-15.4Z" style="fill: #fff;"/>
    <path d="M593.76,93.57h7.76v15.4h-7.76v-15.4Z" style="fill: #fff;"/>
    <path d="M601.52,93.57h7.76v15.4h-7.76v-15.4Z" style="fill: #fff;"/>
    <path d="M610.5,93.57h1.78v15.4h-1.78v-15.4ZM614.05,93.57h1.78v15.4h-1.78v-15.4Z" style="fill: #fff;"/>
    <path d="M624.81,93.57h7.76v15.4h-7.76v-15.4Z" style="fill: #fff;"/>
    <path d="M632.57,93.57h7.76v15.4h-7.76v-15.4Z" style="fill: #fff;"/>
    <path d="M641.55,93.57h1.78v15.4h-1.78v-15.4ZM645.1,93.57h1.78v15.4h-1.78v-15.4Z" style="fill: #fff;"/>
    <path d="M671.38,93.57h7.76v15.4h-7.76v-15.4Z" style="fill: #fff;"/>
    <path d="M679.14,93.57h7.76v15.4h-7.76v-15.4Z" style="fill: #fff;"/>
    <path d="M688.12,93.57h1.78v15.4h-1.78v-15.4ZM691.67,93.57h1.78v15.4h-1.78v-15.4Z" style="fill: #fff;"/>
    <path d="M702.43,93.57h7.76v15.4h-7.76v-15.4Z" style="fill: #fff;"/>
    <path d="M710.19,93.57h7.76v15.4h-7.76v-15.4Z" style="fill: #fff;"/>
    <path d="M717.95,93.57h7.76v15.4h-7.76v-15.4Z" style="fill: #fff;"/>
    <path d="M725.71,93.57h7.76v15.4h-7.76v-15.4Z" style="fill: #fff;"/>
    <path d="M733.47,93.57h7.76v15.4h-7.76v-15.4Z" style="fill: #fff;"/>
    <path d="M744.23,100.52v8.46h-1.78v-9.97h7.44v1.51h-5.66ZM747.79,103.54v5.43h-1.78v-6.95h3.88v1.51h-2.1Z" style="fill: #fff;"/>
    <path d="M748.11,103.54v-1.51h5.66v-8.46h1.78v9.97h-7.44ZM748.11,100.52v-1.51h2.1v-5.43h1.78v6.95h-3.88Z" style="fill: #fff;"/>
    <path d="M772.29,93.57h7.76v15.4h-7.76v-15.4Z" style="fill: #fff;"/>
    <path d="M780.05,93.57h7.76v15.4h-7.76v-15.4Z" style="fill: #fff;"/>
    <path d="M787.81,93.57h7.76v15.4h-7.76v-15.4Z" style="fill: #fff;"/>
    <path d="M795.57,93.57h7.76v15.4h-7.76v-15.4Z" style="fill: #fff;"/>
    <path d="M803.33,93.57h7.76v15.4h-7.76v-15.4Z" style="fill: #fff;"/>
    <path d="M811.09,93.57h7.76v15.4h-7.76v-15.4Z" style="fill: #fff;"/>
    <path d="M818.86,93.57h7.76v15.4h-7.76v-15.4Z" style="fill: #fff;"/>
    <path d="M827.83,93.57h1.78v15.4h-1.78v-15.4ZM831.39,93.57h1.78v15.4h-1.78v-15.4Z" style="fill: #fff;"/>
    <path d="M34.9,106.77h7.76v15.4h-7.76v-15.4Z" style="fill: #fff;"/>
    <path d="M42.67,106.77h7.76v15.4h-7.76v-15.4Z" style="fill: #fff;"/>
    <path d="M51.64,106.77h1.78v15.4h-1.78v-15.4ZM55.2,106.77h1.78v15.4h-1.78v-15.4Z" style="fill: #fff;"/>
    <path d="M59.41,106.77h1.78v8.46h5.66v1.51h-7.44v-9.97ZM62.96,106.77h1.78v5.43h2.1v1.51h-3.88v-6.95Z" style="fill: #fff;"/>
    <path d="M65.95,106.77h7.76v15.4h-7.76v-15.4Z" style="fill: #fff;"/>
    <path d="M73.71,106.77h7.76v15.4h-7.76v-15.4Z" style="fill: #fff;"/>
    <path d="M86.24,122.18v-8.46h-5.66v-1.51h7.44v9.97h-1.78ZM82.69,122.18v-5.43h-2.1v-1.51h3.88v6.95h-1.78Z" style="fill: #fff;"/>
    <path d="M89.24,106.77h7.76v15.4h-7.76v-15.4Z" style="fill: #fff;"/>
    <path d="M97,106.77h7.76v15.4h-7.76v-15.4Z" style="fill: #fff;"/>
    <path d="M105.98,106.77h1.78v15.4h-1.78v-15.4ZM109.53,106.77h1.78v15.4h-1.78v-15.4Z" style="fill: #fff;"/>
    <path d="M120.28,106.77h7.76v15.4h-7.76v-15.4Z" style="fill: #fff;"/>
    <path d="M128.05,106.77h7.76v15.4h-7.76v-15.4Z" style="fill: #fff;"/>
    <path d="M138.8,113.72v8.46h-1.78v-9.97h7.44v1.51h-5.66ZM142.36,116.74v5.43h-1.78v-6.95h3.88v1.51h-2.1Z" style="fill: #fff;"/>
    <path d="M142.68,112.21h9.54v1.51h-9.54v-1.51ZM142.68,115.23h9.54v1.51h-9.54v-1.51Z" style="fill: #fff;"/>
    <path d="M150.45,112.21h9.54v1.51h-9.54v-1.51ZM150.45,115.23h9.54v1.51h-9.54v-1.51Z" style="fill: #fff;"/>
    <path d="M158.21,116.74v-1.51h5.66v-8.46h1.78v9.97h-7.44ZM158.21,113.72v-1.51h2.1v-5.43h1.78v6.95h-3.88Z" style="fill: #fff;"/>
    <path d="M190.14,106.77h7.76v15.4h-7.76v-15.4Z" style="fill: #fff;"/>
    <path d="M197.9,106.77h7.76v15.4h-7.76v-15.4Z" style="fill: #fff;"/>
    <path d="M208.66,113.72v8.46h-1.78v-9.97h7.44v1.51h-5.66ZM212.21,116.74v5.43h-1.78v-6.95h3.88v1.51h-2.1Z" style="fill: #fff;"/>
    <path d="M212.54,112.21h9.54v1.51h-9.54v-1.51ZM212.54,115.23h9.54v1.51h-9.54v-1.51Z" style="fill: #fff;"/>
    <path d="M221.19,106.77h7.76v15.4h-7.76v-15.4Z" style="fill: #fff;"/>
    <path d="M228.95,106.77h7.76v15.4h-7.76v-15.4Z" style="fill: #fff;"/>
    <path d="M241.48,122.18v-8.46h-5.66v-1.51h7.44v9.97h-1.78ZM237.93,122.18v-5.43h-2.1v-1.51h3.88v6.95h-1.78Z" style="fill: #fff;"/>
    <path d="M260,106.77h7.76v15.4h-7.76v-15.4Z" style="fill: #fff;"/>
    <path d="M267.76,106.77h7.76v15.4h-7.76v-15.4Z" style="fill: #fff;"/>
    <path d="M276.74,106.77h1.78v15.4h-1.78v-15.4ZM280.29,106.77h1.78v15.4h-1.78v-15.4Z" style="fill: #fff;"/>
    <path d="M306.57,106.77h7.76v15.4h-7.76v-15.4Z" style="fill: #fff;"/>
    <path d="M314.33,106.77h7.76v15.4h-7.76v-15.4Z" style="fill: #fff;"/>
    <path d="M323.31,106.77h1.78v15.4h-1.78v-15.4ZM326.86,106.77h1.78v15.4h-1.78v-15.4Z" style="fill: #fff;"/>
    <path d="M338.83,106.77h1.78v8.46h5.66v1.51h-7.44v-9.97ZM342.39,106.77h1.78v5.43h2.1v1.51h-3.88v-6.95Z" style="fill: #fff;"/>
    <path d="M344.49,112.21h9.54v1.51h-9.54v-1.51ZM344.49,115.23h9.54v1.51h-9.54v-1.51Z" style="fill: #fff;"/>
    <path d="M352.25,112.21h9.54v1.51h-9.54v-1.51ZM352.25,115.23h9.54v1.51h-9.54v-1.51Z" style="fill: #fff;"/>
    <path d="M360.02,112.21h9.54v1.51h-9.54v-1.51ZM360.02,115.23h9.54v1.51h-9.54v-1.51Z" style="fill: #fff;"/>
    <path d="M367.78,112.21h9.54v1.51h-9.54v-1.51ZM367.78,115.23h9.54v1.51h-9.54v-1.51Z" style="fill: #fff;"/>
    <path d="M375.54,116.74v-1.51h5.66v-8.46h1.78v9.97h-7.44ZM375.54,113.72v-1.51h2.1v-5.43h1.78v6.95h-3.88Z" style="fill: #fff;"/>
    <path d="M391.95,106.77h7.76v15.4h-7.76v-15.4Z" style="fill: #fff;"/>
    <path d="M399.71,106.77h7.76v15.4h-7.76v-15.4Z" style="fill: #fff;"/>
    <path d="M408.69,106.77h1.78v15.4h-1.78v-15.4ZM412.24,106.77h1.78v15.4h-1.78v-15.4Z" style="fill: #fff;"/>
    <path d="M416.45,106.77h1.78v8.46h5.66v1.51h-7.44v-9.97ZM420.01,106.77h1.78v5.43h2.1v1.51h-3.88v-6.95Z" style="fill: #fff;"/>
    <path d="M423,106.77h7.76v15.4h-7.76v-15.4Z" style="fill: #fff;"/>
    <path d="M430.76,106.77h7.76v15.4h-7.76v-15.4Z" style="fill: #fff;"/>
    <path d="M441.52,113.72v8.46h-1.78v-9.97h7.44v1.51h-5.66ZM445.07,116.74v5.43h-1.78v-6.95h3.88v1.51h-2.1Z" style="fill: #fff;"/>
    <path d="M445.4,116.74v-1.51h5.66v-8.46h1.78v9.97h-7.43ZM445.4,113.72v-1.51h2.1v-5.43h1.78v6.95h-3.88Z" style="fill: #fff;"/>
    <path d="M454.05,106.77h7.76v15.4h-7.76v-15.4Z" style="fill: #fff;"/>
    <path d="M461.81,106.77h7.76v15.4h-7.76v-15.4Z" style="fill: #fff;"/>
    <path d="M470.79,106.77h1.78v15.4h-1.78v-15.4ZM474.34,106.77h1.78v15.4h-1.78v-15.4Z" style="fill: #fff;"/>
    <path d="M485.09,106.77h7.76v15.4h-7.76v-15.4Z" style="fill: #fff;"/>
    <path d="M492.86,106.77h7.76v15.4h-7.76v-15.4Z" style="fill: #fff;"/>
    <path d="M503.61,113.72v8.46h-1.78v-9.97h7.44v1.51h-5.66ZM507.17,116.74v5.43h-1.78v-6.95h3.88v1.51h-2.1Z" style="fill: #fff;"/>
    <path d="M507.49,112.21h9.54v1.51h-9.54v-1.51ZM507.49,115.23h9.54v1.51h-9.54v-1.51Z" style="fill: #fff;"/>
    <path d="M515.25,112.21h9.54v1.51h-9.54v-1.51ZM515.25,115.23h9.54v1.51h-9.54v-1.51Z" style="fill: #fff;"/>
    <path d="M523.9,106.77h7.76v15.4h-7.76v-15.4Z" style="fill: #fff;"/>
    <path d="M531.67,106.77h7.76v15.4h-7.76v-15.4Z" style="fill: #fff;"/>
    <path d="M540.64,106.77h1.78v15.4h-1.78v-15.4ZM544.2,106.77h1.78v15.4h-1.78v-15.4Z" style="fill: #fff;"/>
    <path d="M554.95,106.77h7.76v15.4h-7.76v-15.4Z" style="fill: #fff;"/>
    <path d="M562.71,106.77h7.76v15.4h-7.76v-15.4Z" style="fill: #fff;"/>
    <path d="M571.69,106.77h1.78v15.4h-1.78v-15.4ZM575.24,106.77h1.78v15.4h-1.78v-15.4Z" style="fill: #fff;"/>
    <path d="M593.76,106.77h7.76v15.4h-7.76v-15.4Z" style="fill: #fff;"/>
    <path d="M601.52,106.77h7.76v15.4h-7.76v-15.4Z" style="fill: #fff;"/>
    <path d="M610.5,106.77h1.78v15.4h-1.78v-15.4ZM614.05,106.77h1.78v15.4h-1.78v-15.4Z" style="fill: #fff;"/>
    <path d="M624.81,106.77h7.76v15.4h-7.76v-15.4Z" style="fill: #fff;"/>
    <path d="M632.57,106.77h7.76v15.4h-7.76v-15.4Z" style="fill: #fff;"/>
    <path d="M641.55,106.77h1.78v15.4h-1.78v-15.4ZM645.1,106.77h1.78v15.4h-1.78v-15.4Z" style="fill: #fff;"/>
    <path d="M671.38,106.77h7.76v15.4h-7.76v-15.4Z" style="fill: #fff;"/>
    <path d="M679.14,106.77h7.76v15.4h-7.76v-15.4Z" style="fill: #fff;"/>
    <path d="M688.12,106.77h1.78v15.4h-1.78v-15.4ZM691.67,106.77h1.78v15.4h-1.78v-15.4Z" style="fill: #fff;"/>
    <path d="M702.43,106.77h7.76v15.4h-7.76v-15.4Z" style="fill: #fff;"/>
    <path d="M710.19,106.77h7.76v15.4h-7.76v-15.4Z" style="fill: #fff;"/>
    <path d="M720.95,113.72v8.46h-1.78v-9.97h7.44v1.51h-5.66ZM724.5,116.74v5.43h-1.78v-6.95h3.88v1.51h-2.1Z" style="fill: #fff;"/>
    <path d="M724.83,112.21h9.54v1.51h-9.54v-1.51ZM724.83,115.23h9.54v1.51h-9.54v-1.51Z" style="fill: #fff;"/>
    <path d="M733.47,106.77h7.76v15.4h-7.76v-15.4Z" style="fill: #fff;"/>
    <path d="M741.24,106.77h7.76v15.4h-7.76v-15.4Z" style="fill: #fff;"/>
    <path d="M753.77,122.18v-8.46h-5.66v-1.51h7.44v9.97h-1.78ZM750.21,122.18v-5.43h-2.1v-1.51h3.88v6.95h-1.78Z" style="fill: #fff;"/>
    <path d="M772.29,106.77h7.76v15.4h-7.76v-15.4Z" style="fill: #fff;"/>
    <path d="M780.05,106.77h7.76v15.4h-7.76v-15.4Z" style="fill: #fff;"/>
    <path d="M790.8,113.72v8.46h-1.78v-9.97h7.44v1.51h-5.66ZM794.36,116.74v5.43h-1.78v-6.95h3.88v1.51h-2.1Z" style="fill: #fff;"/>
    <path d="M794.68,112.21h9.54v1.51h-9.54v-1.51ZM794.68,115.23h9.54v1.51h-9.54v-1.51Z" style="fill: #fff;"/>
    <path d="M802.45,112.21h9.54v1.51h-9.54v-1.51ZM802.45,115.23h9.54v1.51h-9.54v-1.51Z" style="fill: #fff;"/>
    <path d="M811.09,106.77h7.76v15.4h-7.76v-15.4Z" style="fill: #fff;"/>
    <path d="M818.86,106.77h7.76v15.4h-7.76v-15.4Z" style="fill: #fff;"/>
    <path d="M827.83,106.77h1.78v15.4h-1.78v-15.4ZM831.39,106.77h1.78v15.4h-1.78v-15.4Z" style="fill: #fff;"/>
    <path d="M34.9,119.97h7.76v15.4h-7.76v-15.4Z" style="fill: #fff;"/>
    <path d="M42.67,119.97h7.76v15.4h-7.76v-15.4Z" style="fill: #fff;"/>
    <path d="M51.64,119.97h1.78v15.4h-1.78v-15.4ZM55.2,119.97h1.78v15.4h-1.78v-15.4Z" style="fill: #fff;"/>
    <path d="M67.17,119.97h1.78v8.46h5.66v1.51h-7.44v-9.97ZM70.72,119.97h1.78v5.43h2.1v1.51h-3.88v-6.95Z" style="fill: #fff;"/>
    <path d="M73.71,119.97h7.76v15.4h-7.76v-15.4Z" style="fill: #fff;"/>
    <path d="M81.48,119.97h7.76v15.4h-7.76v-15.4Z" style="fill: #fff;"/>
    <path d="M89.24,119.97h7.76v15.4h-7.76v-15.4Z" style="fill: #fff;"/>
    <path d="M97,119.97h7.76v15.4h-7.76v-15.4Z" style="fill: #fff;"/>
    <path d="M105.98,119.97h1.78v15.4h-1.78v-15.4ZM109.53,119.97h1.78v15.4h-1.78v-15.4Z" style="fill: #fff;"/>
    <path d="M120.28,119.97h7.76v15.4h-7.76v-15.4Z" style="fill: #fff;"/>
    <path d="M128.05,119.97h7.76v15.4h-7.76v-15.4Z" style="fill: #fff;"/>
    <path d="M135.81,119.97h7.76v15.4h-7.76v-15.4Z" style="fill: #fff;"/>
    <path d="M143.57,119.97h7.76v15.4h-7.76v-15.4Z" style="fill: #fff;"/>
    <path d="M151.33,119.97h7.76v15.4h-7.76v-15.4Z" style="fill: #fff;"/>
    <path d="M159.09,119.97h7.76v15.4h-7.76v-15.4Z" style="fill: #fff;"/>
    <path d="M166.86,119.97h7.76v15.4h-7.76v-15.4Z" style="fill: #fff;"/>
    <path d="M179.39,135.38v-8.46h-5.66v-1.51h7.44v9.97h-1.78ZM175.83,135.38v-5.43h-2.1v-1.51h3.88v6.95h-1.78Z" style="fill: #fff;"/>
    <path d="M190.14,119.97h7.76v15.4h-7.76v-15.4Z" style="fill: #fff;"/>
    <path d="M197.9,119.97h7.76v15.4h-7.76v-15.4Z" style="fill: #fff;"/>
    <path d="M206.88,119.97h1.78v15.4h-1.78v-15.4ZM210.43,119.97h1.78v15.4h-1.78v-15.4Z" style="fill: #fff;"/>
    <path d="M228.95,119.97h7.76v15.4h-7.76v-15.4Z" style="fill: #fff;"/>
    <path d="M236.71,119.97h7.76v15.4h-7.76v-15.4Z" style="fill: #fff;"/>
    <path d="M249.24,135.38v-8.46h-5.66v-1.51h7.44v9.97h-1.78ZM245.69,135.38v-5.43h-2.1v-1.51h3.88v6.95h-1.78Z" style="fill: #fff;"/>
    <path d="M261.21,119.97h1.78v8.46h5.66v1.51h-7.44v-9.97ZM264.77,119.97h1.78v5.43h2.1v1.51h-3.88v-6.95Z" style="fill: #fff;"/>
    <path d="M267.76,119.97h7.76v15.4h-7.76v-15.4Z" style="fill: #fff;"/>
    <path d="M275.52,119.97h7.76v15.4h-7.76v-15.4Z" style="fill: #fff;"/>
    <path d="M283.28,119.97h7.76v15.4h-7.76v-15.4Z" style="fill: #fff;"/>
    <path d="M291.05,119.97h7.76v15.4h-7.76v-15.4Z" style="fill: #fff;"/>
    <path d="M298.81,119.97h7.76v15.4h-7.76v-15.4Z" style="fill: #fff;"/>
    <path d="M306.57,119.97h7.76v15.4h-7.76v-15.4Z" style="fill: #fff;"/>
    <path d="M317.33,126.92v8.46h-1.78v-9.97h7.44v1.51h-5.66ZM320.88,129.94v5.43h-1.78v-6.95h3.88v1.51h-2.1Z" style="fill: #fff;"/>
    <path d="M321.21,129.94v-1.51h5.66v-8.46h1.78v9.97h-7.44ZM321.21,126.92v-1.51h2.1v-5.43h1.78v6.95h-3.88Z" style="fill: #fff;"/>
    <path d="M391.95,119.97h7.76v15.4h-7.76v-15.4Z" style="fill: #fff;"/>
    <path d="M399.71,119.97h7.76v15.4h-7.76v-15.4Z" style="fill: #fff;"/>
    <path d="M408.69,119.97h1.78v15.4h-1.78v-15.4ZM412.24,119.97h1.78v15.4h-1.78v-15.4Z" style="fill: #fff;"/>
    <path d="M424.21,119.97h1.78v8.46h5.66v1.51h-7.44v-9.97ZM427.77,119.97h1.78v5.43h2.1v1.51h-3.88v-6.95Z" style="fill: #fff;"/>
    <path d="M429.87,125.41h9.54v1.51h-9.54v-1.51ZM429.87,128.43h9.54v1.51h-9.54v-1.51Z" style="fill: #fff;"/>
    <path d="M437.64,129.94v-1.51h5.66v-8.46h1.78v9.97h-7.43ZM437.64,126.92v-1.51h2.1v-5.43h1.78v6.95h-3.88Z" style="fill: #fff;"/>
    <path d="M454.05,119.97h7.76v15.4h-7.76v-15.4Z" style="fill: #fff;"/>
    <path d="M461.81,119.97h7.76v15.4h-7.76v-15.4Z" style="fill: #fff;"/>
    <path d="M470.79,119.97h1.78v15.4h-1.78v-15.4ZM474.34,119.97h1.78v15.4h-1.78v-15.4Z" style="fill: #fff;"/>
    <path d="M485.09,119.97h7.76v15.4h-7.76v-15.4Z" style="fill: #fff;"/>
    <path d="M492.86,119.97h7.76v15.4h-7.76v-15.4Z" style="fill: #fff;"/>
    <path d="M501.83,119.97h1.78v15.4h-1.78v-15.4ZM505.39,119.97h1.78v15.4h-1.78v-15.4Z" style="fill: #fff;"/>
    <path d="M523.9,119.97h7.76v15.4h-7.76v-15.4Z" style="fill: #fff;"/>
    <path d="M531.67,119.97h7.76v15.4h-7.76v-15.4Z" style="fill: #fff;"/>
    <path d="M540.64,119.97h1.78v15.4h-1.78v-15.4ZM544.2,119.97h1.78v15.4h-1.78v-15.4Z" style="fill: #fff;"/>
    <path d="M554.95,119.97h7.76v15.4h-7.76v-15.4Z" style="fill: #fff;"/>
    <path d="M562.71,119.97h7.76v15.4h-7.76v-15.4Z" style="fill: #fff;"/>
    <path d="M570.47,119.97h7.76v15.4h-7.76v-15.4Z" style="fill: #fff;"/>
    <path d="M578.24,119.97h7.76v15.4h-7.76v-15.4Z" style="fill: #fff;"/>
    <path d="M586,119.97h7.76v15.4h-7.76v-15.4Z" style="fill: #fff;"/>
    <path d="M593.76,119.97h7.76v15.4h-7.76v-15.4Z" style="fill: #fff;"/>
    <path d="M604.52,126.92v8.46h-1.78v-9.97h7.44v1.51h-5.66ZM608.07,129.94v5.43h-1.78v-6.95h3.88v1.51h-2.1Z" style="fill: #fff;"/>
    <path d="M608.4,129.94v-1.51h5.66v-8.46h1.78v9.97h-7.44ZM608.4,126.92v-1.51h2.1v-5.43h1.78v6.95h-3.88Z" style="fill: #fff;"/>
    <path d="M626.02,119.97h1.78v8.46h5.66v1.51h-7.44v-9.97ZM629.58,119.97h1.78v5.43h2.1v1.51h-3.88v-6.95Z" style="fill: #fff;"/>
    <path d="M632.57,119.97h7.76v15.4h-7.76v-15.4Z" style="fill: #fff;"/>
    <path d="M640.33,119.97h7.76v15.4h-7.76v-15.4Z" style="fill: #fff;"/>
    <path d="M648.09,119.97h7.76v15.4h-7.76v-15.4Z" style="fill: #fff;"/>
    <path d="M655.86,119.97h7.76v15.4h-7.76v-15.4Z" style="fill: #fff;"/>
    <path d="M663.62,119.97h7.76v15.4h-7.76v-15.4Z" style="fill: #fff;"/>
    <path d="M671.38,119.97h7.76v15.4h-7.76v-15.4Z" style="fill: #fff;"/>
    <path d="M682.14,126.92v8.46h-1.78v-9.97h7.44v1.51h-5.66ZM685.69,129.94v5.43h-1.78v-6.95h3.88v1.51h-2.1Z" style="fill: #fff;"/>
    <path d="M686.02,129.94v-1.51h5.66v-8.46h1.78v9.97h-7.44ZM686.02,126.92v-1.51h2.1v-5.43h1.78v6.95h-3.88Z" style="fill: #fff;"/>
    <path d="M702.43,119.97h7.76v15.4h-7.76v-15.4Z" style="fill: #fff;"/>
    <path d="M710.19,119.97h7.76v15.4h-7.76v-15.4Z" style="fill: #fff;"/>
    <path d="M719.17,119.97h1.78v15.4h-1.78v-15.4ZM722.72,119.97h1.78v15.4h-1.78v-15.4Z" style="fill: #fff;"/>
    <path d="M741.24,119.97h7.76v15.4h-7.76v-15.4Z" style="fill: #fff;"/>
    <path d="M749,119.97h7.76v15.4h-7.76v-15.4Z" style="fill: #fff;"/>
    <path d="M761.53,135.38v-8.46h-5.66v-1.51h7.44v9.97h-1.78ZM757.98,135.38v-5.43h-2.1v-1.51h3.88v6.95h-1.78Z" style="fill: #fff;"/>
    <path d="M772.29,119.97h7.76v15.4h-7.76v-15.4Z" style="fill: #fff;"/>
    <path d="M780.05,119.97h7.76v15.4h-7.76v-15.4Z" style="fill: #fff;"/>
    <path d="M789.02,119.97h1.78v15.4h-1.78v-15.4ZM792.58,119.97h1.78v15.4h-1.78v-15.4Z" style="fill: #fff;"/>
    <path d="M811.09,119.97h7.76v15.4h-7.76v-15.4Z" style="fill: #fff;"/>
    <path d="M818.86,119.97h7.76v15.4h-7.76v-15.4Z" style="fill: #fff;"/>
    <path d="M827.83,119.97h1.78v15.4h-1.78v-15.4ZM831.39,119.97h1.78v15.4h-1.78v-15.4Z" style="fill: #fff;"/>
    <path d="M36.12,133.17h1.78v8.46h5.66v1.51h-7.44v-9.97ZM39.67,133.17h1.78v5.44h2.1v1.51h-3.88v-6.95Z" style="fill: #fff;"/>
    <path d="M41.78,138.61h9.54v1.51h-9.54v-1.51ZM41.78,141.63h9.54v1.51h-9.54v-1.51Z" style="fill: #fff;"/>
    <path d="M49.54,143.14v-1.51h5.66v-8.46h1.78v9.97h-7.44ZM49.54,140.12v-1.51h2.1v-5.44h1.78v6.95h-3.88Z" style="fill: #fff;"/>
    <path d="M74.93,133.17h1.78v8.46h5.66v1.51h-7.44v-9.97ZM78.48,133.17h1.78v5.44h2.1v1.51h-3.88v-6.95Z" style="fill: #fff;"/>
    <path d="M80.59,138.61h9.54v1.51h-9.54v-1.51ZM80.59,141.63h9.54v1.51h-9.54v-1.51Z" style="fill: #fff;"/>
    <path d="M88.35,138.61h9.54v1.51h-9.54v-1.51ZM88.35,141.63h9.54v1.51h-9.54v-1.51Z" style="fill: #fff;"/>
    <path d="M96.11,138.61h9.54v1.51h-9.54v-1.51ZM96.11,141.63h9.54v1.51h-9.54v-1.51Z" style="fill: #fff;"/>
    <path d="M103.87,143.14v-1.51h5.66v-8.46h1.78v9.97h-7.44ZM103.87,140.12v-1.51h2.1v-5.44h1.78v6.95h-3.88Z" style="fill: #fff;"/>
    <path d="M121.5,133.17h1.78v8.46h5.66v1.51h-7.44v-9.97ZM125.05,133.17h1.78v5.44h2.1v1.51h-3.88v-6.95Z" style="fill: #fff;"/>
    <path d="M127.16,138.61h9.54v1.51h-9.54v-1.51ZM127.16,141.63h9.54v1.51h-9.54v-1.51Z" style="fill: #fff;"/>
    <path d="M134.92,138.61h9.54v1.51h-9.54v-1.51ZM134.92,141.63h9.54v1.51h-9.54v-1.51Z" style="fill: #fff;"/>
    <path d="M142.68,138.61h9.54v1.51h-9.54v-1.51ZM142.68,141.63h9.54v1.51h-9.54v-1.51Z" style="fill: #fff;"/>
    <path d="M150.45,138.61h9.54v1.51h-9.54v-1.51ZM150.45,141.63h9.54v1.51h-9.54v-1.51Z" style="fill: #fff;"/>
    <path d="M158.21,138.61h9.54v1.51h-9.54v-1.51ZM158.21,141.63h9.54v1.51h-9.54v-1.51Z" style="fill: #fff;"/>
    <path d="M165.97,138.61h9.54v1.51h-9.54v-1.51ZM165.97,141.63h9.54v1.51h-9.54v-1.51Z" style="fill: #fff;"/>
    <path d="M173.73,143.14v-1.51h5.66v-8.46h1.78v9.97h-7.44ZM173.73,140.12v-1.51h2.1v-5.44h1.78v6.95h-3.88Z" style="fill: #fff;"/>
    <path d="M191.36,133.17h1.78v8.46h5.66v1.51h-7.44v-9.97ZM194.91,133.17h1.78v5.44h2.1v1.51h-3.88v-6.95Z" style="fill: #fff;"/>
    <path d="M197.02,138.61h9.54v1.51h-9.54v-1.51ZM197.02,141.63h9.54v1.51h-9.54v-1.51Z" style="fill: #fff;"/>
    <path d="M204.78,143.14v-1.51h5.66v-8.46h1.78v9.97h-7.44ZM204.78,140.12v-1.51h2.1v-5.44h1.78v6.95h-3.88Z" style="fill: #fff;"/>
    <path d="M230.17,133.17h1.78v8.46h5.66v1.51h-7.44v-9.97ZM233.72,133.17h1.78v5.44h2.1v1.51h-3.88v-6.95Z" style="fill: #fff;"/>
    <path d="M235.83,138.61h9.54v1.51h-9.54v-1.51ZM235.83,141.63h9.54v1.51h-9.54v-1.51Z" style="fill: #fff;"/>
    <path d="M243.59,143.14v-1.51h5.66v-8.46h1.78v9.97h-7.44ZM243.59,140.12v-1.51h2.1v-5.44h1.78v6.95h-3.88Z" style="fill: #fff;"/>
    <path d="M268.98,133.17h1.78v8.46h5.66v1.51h-7.44v-9.97ZM272.53,133.17h1.78v5.44h2.1v1.51h-3.88v-6.95Z" style="fill: #fff;"/>
    <path d="M274.64,138.61h9.54v1.51h-9.54v-1.51ZM274.64,141.63h9.54v1.51h-9.54v-1.51Z" style="fill: #fff;"/>
    <path d="M282.4,138.61h9.54v1.51h-9.54v-1.51ZM282.4,141.63h9.54v1.51h-9.54v-1.51Z" style="fill: #fff;"/>
    <path d="M290.16,138.61h9.54v1.51h-9.54v-1.51ZM290.16,141.63h9.54v1.51h-9.54v-1.51Z" style="fill: #fff;"/>
    <path d="M297.92,138.61h9.54v1.51h-9.54v-1.51ZM297.92,141.63h9.54v1.51h-9.54v-1.51Z" style="fill: #fff;"/>
    <path d="M305.68,138.61h9.54v1.51h-9.54v-1.51ZM305.68,141.63h9.54v1.51h-9.54v-1.51Z" style="fill: #fff;"/>
    <path d="M313.45,143.14v-1.51h5.66v-8.46h1.78v9.97h-7.44ZM313.45,140.12v-1.51h2.1v-5.44h1.78v6.95h-3.88Z" style="fill: #fff;"/>
    <path d="M393.17,133.17h1.78v8.46h5.66v1.51h-7.44v-9.97ZM396.72,133.17h1.78v5.44h2.1v1.51h-3.88v-6.95Z" style="fill: #fff;"/>
    <path d="M398.83,138.61h9.54v1.51h-9.54v-1.51ZM398.83,141.63h9.54v1.51h-9.54v-1.51Z" style="fill: #fff;"/>
    <path d="M406.59,143.14v-1.51h5.66v-8.46h1.78v9.97h-7.44ZM406.59,140.12v-1.51h2.1v-5.44h1.78v6.95h-3.88Z" style="fill: #fff;"/>
    <path d="M455.26,133.17h1.78v8.46h5.66v1.51h-7.43v-9.97ZM458.82,133.17h1.78v5.44h2.1v1.51h-3.88v-6.95Z" style="fill: #fff;"/>
    <path d="M460.92,138.61h9.54v1.51h-9.54v-1.51ZM460.92,141.63h9.54v1.51h-9.54v-1.51Z" style="fill: #fff;"/>
    <path d="M468.68,143.14v-1.51h5.66v-8.46h1.78v9.97h-7.44ZM468.68,140.12v-1.51h2.1v-5.44h1.78v6.95h-3.88Z" style="fill: #fff;"/>
    <path d="M486.31,133.17h1.78v8.46h5.66v1.51h-7.44v-9.97ZM489.86,133.17h1.78v5.44h2.1v1.51h-3.88v-6.95Z" style="fill: #fff;"/>
    <path d="M491.97,138.61h9.54v1.51h-9.54v-1.51ZM491.97,141.63h9.54v1.51h-9.54v-1.51Z" style="fill: #fff;"/>
    <path d="M499.73,143.14v-1.51h5.66v-8.46h1.78v9.97h-7.44ZM499.73,140.12v-1.51h2.1v-5.44h1.78v6.95h-3.88Z" style="fill: #fff;"/>
    <path d="M525.12,133.17h1.78v8.46h5.66v1.51h-7.44v-9.97ZM528.67,133.17h1.78v5.44h2.1v1.51h-3.88v-6.95Z" style="fill: #fff;"/>
    <path d="M530.78,138.61h9.54v1.51h-9.54v-1.51ZM530.78,141.63h9.54v1.51h-9.54v-1.51Z" style="fill: #fff;"/>
    <path d="M538.54,143.14v-1.51h5.66v-8.46h1.78v9.97h-7.44ZM538.54,140.12v-1.51h2.1v-5.44h1.78v6.95h-3.88Z" style="fill: #fff;"/>
    <path d="M556.17,133.17h1.78v8.46h5.66v1.51h-7.44v-9.97ZM559.72,133.17h1.78v5.44h2.1v1.51h-3.88v-6.95Z" style="fill: #fff;"/>
    <path d="M561.83,138.61h9.54v1.51h-9.54v-1.51ZM561.83,141.63h9.54v1.51h-9.54v-1.51Z" style="fill: #fff;"/>
    <path d="M569.59,138.61h9.54v1.51h-9.54v-1.51ZM569.59,141.63h9.54v1.51h-9.54v-1.51Z" style="fill: #fff;"/>
    <path d="M577.35,138.61h9.54v1.51h-9.54v-1.51ZM577.35,141.63h9.54v1.51h-9.54v-1.51Z" style="fill: #fff;"/>
    <path d="M585.11,138.61h9.54v1.51h-9.54v-1.51ZM585.11,141.63h9.54v1.51h-9.54v-1.51Z" style="fill: #fff;"/>
    <path d="M592.87,138.61h9.54v1.51h-9.54v-1.51ZM592.87,141.63h9.54v1.51h-9.54v-1.51Z" style="fill: #fff;"/>
    <path d="M600.63,143.14v-1.51h5.66v-8.46h1.78v9.97h-7.44ZM600.63,140.12v-1.51h2.1v-5.44h1.78v6.95h-3.88Z" style="fill: #fff;"/>
    <path d="M633.79,133.17h1.78v8.46h5.66v1.51h-7.44v-9.97ZM637.34,133.17h1.78v5.44h2.1v1.51h-3.88v-6.95Z" style="fill: #fff;"/>
    <path d="M639.45,138.61h9.54v1.51h-9.54v-1.51ZM639.45,141.63h9.54v1.51h-9.54v-1.51Z" style="fill: #fff;"/>
    <path d="M647.21,138.61h9.54v1.51h-9.54v-1.51ZM647.21,141.63h9.54v1.51h-9.54v-1.51Z" style="fill: #fff;"/>
    <path d="M654.97,138.61h9.54v1.51h-9.54v-1.51ZM654.97,141.63h9.54v1.51h-9.54v-1.51Z" style="fill: #fff;"/>
    <path d="M662.73,138.61h9.54v1.51h-9.54v-1.51ZM662.73,141.63h9.54v1.51h-9.54v-1.51Z" style="fill: #fff;"/>
    <path d="M670.49,138.61h9.54v1.51h-9.54v-1.51ZM670.49,141.63h9.54v1.51h-9.54v-1.51Z" style="fill: #fff;"/>
    <path d="M678.25,143.14v-1.51h5.66v-8.46h1.78v9.97h-7.44ZM678.25,140.12v-1.51h2.1v-5.44h1.78v6.95h-3.88Z" style="fill: #fff;"/>
    <path d="M703.64,133.17h1.78v8.46h5.66v1.51h-7.44v-9.97ZM707.2,133.17h1.78v5.44h2.1v1.51h-3.88v-6.95Z" style="fill: #fff;"/>
    <path d="M709.3,138.61h9.54v1.51h-9.54v-1.51ZM709.3,141.63h9.54v1.51h-9.54v-1.51Z" style="fill: #fff;"/>
    <path d="M717.06,143.14v-1.51h5.66v-8.46h1.78v9.97h-7.44ZM717.06,140.12v-1.51h2.1v-5.44h1.78v6.95h-3.88Z" style="fill: #fff;"/>
    <path d="M742.45,133.17h1.78v8.46h5.66v1.51h-7.44v-9.97ZM746.01,133.17h1.78v5.44h2.1v1.51h-3.88v-6.95Z" style="fill: #fff;"/>
    <path d="M748.11,138.61h9.54v1.51h-9.54v-1.51ZM748.11,141.63h9.54v1.51h-9.54v-1.51Z" style="fill: #fff;"/>
    <path d="M755.87,143.14v-1.51h5.66v-8.46h1.78v9.97h-7.44ZM755.87,140.12v-1.51h2.1v-5.44h1.78v6.95h-3.88Z" style="fill: #fff;"/>
    <path d="M773.5,133.17h1.78v8.46h5.66v1.51h-7.44v-9.97ZM777.05,133.17h1.78v5.44h2.1v1.51h-3.88v-6.95Z" style="fill: #fff;"/>
    <path d="M779.16,138.61h9.54v1.51h-9.54v-1.51ZM779.16,141.63h9.54v1.51h-9.54v-1.51Z" style="fill: #fff;"/>
    <path d="M786.92,143.14v-1.51h5.66v-8.46h1.78v9.97h-7.44ZM786.92,140.12v-1.51h2.1v-5.44h1.78v6.95h-3.88Z" style="fill: #fff;"/>
    <path d="M812.31,133.17h1.78v8.46h5.66v1.51h-7.44v-9.97ZM815.86,133.17h1.78v5.44h2.1v1.51h-3.88v-6.95Z" style="fill: #fff;"/>
    <path d="M817.97,138.61h9.54v1.51h-9.54v-1.51ZM817.97,141.63h9.54v1.51h-9.54v-1.51Z" style="fill: #fff;"/>
    <path d="M825.73,143.14v-1.51h5.66v-8.46h1.78v9.97h-7.44ZM825.73,140.12v-1.51h2.1v-5.44h1.78v6.95h-3.88Z" style="fill: #fff;"/>
  </g>
</svg>